PathFileType	3	(X/Y/Z)	running_2__view1_aligned.trc
DataRate	CameraRate	NumFrames	NumMarkers	Units	OrigDataRate	OrigDataStartFrame	OrigNumFrames
100.0	100.0	7	19	mm	100.0	1866	6354
Frame#	Time	pelvis			neck			head			hip_left			hip_right			knee_left			knee_right			ankle_left			ankle_right			heel_left			heel_right			toe_left			toe_right			shoulder_left			shoulder_right			elbow_left			elbow_right			wrist_left			wrist_right			
		X1	Y1	Z1	X2	Y2	Z2	X3	Y3	Z3	X4	Y4	Z4	X5	Y5	Z5	X6	Y6	Z6	X7	Y7	Z7	X8	Y8	Z8	X9	Y9	Z9	X10	Y10	Z10	X11	Y11	Z11	X12	Y12	Z12	X13	Y13	Z13	X14	Y14	Z14	X15	Y15	Z15	X16	Y16	Z16	X17	Y17	Z17	X18	Y18	Z18	X19	Y19	Z19	
1866	18.65000	21.911420	939.660784	214.259534	-26.427221	1471.069258	365.048238	-13.781529	1540.481511	518.347156	99.973623	940.752496	213.906955	-56.151046	938.569033	214.612387	113.473567	541.748557	420.614917	-112.974823	503.288315	285.324951	91.137913	209.160876	241.077419	-133.933073	191.032911	32.230709	87.399446	180.289085	198.507947	-131.614998	172.249705	-18.920607	72.587264	110.032986	363.809087	-136.180734	50.402840	131.950887	137.270231	1480.793400	310.642712	-190.913657	1407.257706	325.855866	233.226790	1257.527309	165.069674	-253.766328	1143.662455	252.112476	205.276273	1084.611337	340.783816	-181.606922	1055.211566	471.401879
1867	18.66000	22.638055	937.960769	213.453918	-24.856437	1469.340219	363.914627	-11.961433	1538.915486	517.251151	100.621549	939.072652	213.120580	-55.345731	936.848844	213.787567	112.158635	540.542897	426.813991	-113.829774	502.006079	284.726432	89.578882	204.219533	253.248819	-136.698143	195.408178	19.711819	86.068266	173.948786	211.273784	-134.339151	178.447476	-32.673742	70.668993	109.936527	380.336312	-139.853803	48.845835	114.990105	138.851657	1478.683031	308.657497	-189.633542	1405.160882	325.527972	233.373256	1254.941328	161.054540	-251.648805	1140.283868	253.226392	207.757333	1079.893066	337.056156	-178.669061	1054.364685	474.035543
1868	18.67000	23.364690	936.260755	212.648302	-23.285653	1467.611179	362.781017	-10.141336	1537.349461	516.155146	101.269475	937.392808	212.334205	-54.540417	935.128654	212.962746	110.843702	539.337238	433.013064	-114.684725	500.723843	284.127914	88.019851	199.278190	265.420220	-139.463213	199.783445	7.192929	84.737085	167.608486	224.039621	-137.063304	184.645248	-46.426877	68.750721	109.840067	396.863538	-143.526872	47.288830	98.029323	140.433083	1476.572661	306.672282	-188.353427	1403.064058	325.200078	233.519721	1252.355348	157.039405	-249.531282	1136.905281	254.340307	210.238392	1075.174794	333.328496	-175.731200	1053.517804	476.669207
1869	18.68000	23.763946	936.663427	212.272377	-22.286445	1467.994512	362.528250	-8.938114	1537.423795	516.122055	101.627819	937.851770	212.037910	-54.100218	935.475042	212.507154	109.777088	539.559423	431.617243	-115.013792	501.902608	285.715346	87.848454	195.033668	268.762759	-140.853749	202.994703	6.234368	84.823608	162.031590	227.632000	-138.398339	188.437948	-47.584938	68.950011	108.640824	404.872535	-145.817472	49.137906	95.447627	141.543775	1476.638605	306.476015	-187.571408	1403.583987	324.808255	234.524288	1251.829741	157.599140	-248.777774	1137.367231	253.675785	209.642898	1075.654438	334.074270	-174.706161	1054.028854	475.989339
1870	18.69000	24.163202	937.066100	211.896452	-21.287238	1468.377845	362.275483	-7.734892	1537.498128	516.088964	101.986163	938.310732	211.741615	-53.660020	935.821429	212.051562	108.710474	539.781608	430.221421	-115.342860	503.081374	287.302777	87.677058	190.789147	272.105298	-142.244285	206.205962	5.275807	84.910131	156.454695	231.224379	-139.733375	192.230649	-48.742999	69.149300	107.441581	412.881531	-148.108072	50.986982	92.865931	142.654467	1476.704549	306.279748	-186.789388	1404.103916	324.416432	235.528855	1251.304134	158.158874	-248.024267	1137.829181	253.011264	209.047403	1076.134082	334.820045	-173.681123	1054.539905	475.309472
1871	18.70000	24.562459	937.468773	211.520527	-20.288031	1468.761178	362.022715	-6.531670	1537.572462	516.055873	102.344507	938.769694	211.445320	-53.219821	936.167817	211.595970	107.643860	540.003793	428.825600	-115.671927	504.260139	288.890209	87.505662	186.544625	275.447837	-143.634821	209.417221	4.317246	84.996654	150.877799	234.816758	-141.068410	196.023350	-49.901060	69.348590	106.242338	420.890528	-150.398673	52.836058	90.284235	143.765160	1476.770493	306.083480	-186.007369	1404.623844	324.024608	236.533423	1250.778527	158.718609	-247.270760	1138.291131	252.346742	208.451909	1076.613726	335.565819	-172.656085	1055.050955	474.629604
1872	18.71000	24.961715	937.871445	211.144602	-19.288824	1469.144511	361.769948	-5.328448	1537.646795	516.022782	102.702850	939.228657	211.149025	-52.779623	936.514205	211.140378	106.577245	540.225978	427.429778	-116.000995	505.438904	290.477641	87.334265	182.300103	278.790376	-145.025356	212.628480	3.358685	85.083177	145.300903	238.409137	-142.403446	199.816051	-51.059122	69.547879	105.043094	428.899525	-152.689273	54.685134	87.702539	144.875852	1476.836436	305.887213	-185.225349	1405.143773	323.632785	237.537990	1250.252919	159.278343	-246.517253	1138.753081	251.682221	207.856414	1077.093370	336.311593	-171.631046	1055.562005	473.949736
